<svg xmlns:xlink="http://www.w3.org/1999/xlink" version="1.0" xmlns="http://www.w3.org/2000/svg" width="300" height="97.5" viewBox="0 0 1200.000000 390.000000" preserveAspectRatio="xMidYMid meet"> <g transform="translate(0.000000,390.000000) scale(0.100000,-0.100000)" fill="#0D31CC" stroke="none"> <path d="M7520 3875 c-663 -84 -1152 -444 -1280 -943 -30 -119 -42 -285 -29 -395 23 -200 101 -351 263 -513 122 -121 246 -206 551 -374 271 -150 365 -212 433 -284 90 -95 112 -182 75 -292 -34 -101 -177 -209 -329 -248 -309 -79 -780 -7 -1156 177 -57 28 -69 31 -72 18 -12 -42 -166 -773 -166 -789 0 -35 312 -127 596 -177 617 -107 1214 -13 1622 254 256 169 424 402 504 701 29 110 36 367 14 481 -36 179 -112 314 -261 464 -126 127 -260 222 -495 349 -432 234 -511 291 -561 401 -68 149 66 316 306 381 83 22 321 30 454 14 138 -16 338 -67 474 -120 60 -23 109 -40 111 -39 1 2 40 179 86 392 70 326 81 390 69 398 -48 31 -334 104 -529 134 -148 24 -528 29 -680 10z" fill="#0D31CC"></path> <path d="M27 3823 c-3 -5 -8 -31 -11 -58 l-7 -50 108 -23 c256 -56 629 -182 801 -272 146 -75 203 -143 251 -294 15 -50 201 -758 412 -1573 l384 -1483 507 0 c473 0 508 1 517 17 13 26 1552 3705 1558 3726 5 16 -22 17 -502 15 l-507 -3 -501 -1268 c-276 -697 -504 -1267 -507 -1267 -3 0 -101 502 -218 1117 -235 1233 -225 1196 -321 1291 -26 26 -70 59 -97 74 -109 59 -91 58 -1016 58 -466 0 -849 -3 -851 -7z" fill="#0D31CC"></path> <path d="M4966 3813 c-2 -10 -181 -848 -396 -1863 -215 -1015 -393 -1853 -396 -1862 -5 -17 22 -18 480 -18 l486 0 5 23 c25 107 785 3712 785 3723 0 12 -74 14 -479 14 -448 0 -480 -1 -485 -17z" fill="#0D31CC"></path> <path d="M10267 3819 c-120 -28 -222 -120 -291 -262 -32 -64 -1384 -3298 -1453 -3475 -4 -10 98 -12 503 -10 l509 3 62 180 c35 99 79 226 99 283 l36 102 622 0 623 0 59 -282 59 -283 449 -3 449 -2 -6 29 c-8 40 -755 3622 -768 3684 l-11 47 -451 -1 c-249 -1 -469 -5 -490 -10z m408 -1703 c80 -373 145 -687 145 -698 0 -17 -18 -18 -400 -18 -289 0 -400 3 -400 11 0 9 460 1296 492 1379 6 14 12 21 14 15 2 -5 69 -316 149 -689z" fill="#0D31CC"></path> </g> </svg>